<mxfile host="app.diagrams.net" modified="2023-04-08T14:11:57.707Z" agent="Mozilla/5.0 (Windows NT 10.0; Win64; x64; rv:109.0) Gecko/20100101 Firefox/111.0" etag="NFPOO1G-qLKwpc9-icp0" version="21.1.5" type="github">
  <diagram name="Page-1" id="rT2AkK05nGb7T9Rms0hV">
    <mxGraphModel dx="1434" dy="764" grid="1" gridSize="10" guides="1" tooltips="1" connect="1" arrows="1" fold="1" page="1" pageScale="1" pageWidth="850" pageHeight="1100" math="0" shadow="0">
      <root>
        <mxCell id="0" />
        <mxCell id="1" parent="0" />
        <mxCell id="UwjaHp-W4bodO4WsvOct-59" value="" style="rounded=0;whiteSpace=wrap;html=1;" vertex="1" parent="1">
          <mxGeometry x="80" y="50" width="690" height="320" as="geometry" />
        </mxCell>
        <mxCell id="UwjaHp-W4bodO4WsvOct-27" value="" style="edgeStyle=orthogonalEdgeStyle;rounded=0;orthogonalLoop=1;jettySize=auto;html=1;entryX=0.5;entryY=0;entryDx=0;entryDy=0;" edge="1" parent="1" source="UwjaHp-W4bodO4WsvOct-1" target="UwjaHp-W4bodO4WsvOct-36">
          <mxGeometry relative="1" as="geometry">
            <mxPoint x="635" y="260" as="targetPoint" />
          </mxGeometry>
        </mxCell>
        <mxCell id="UwjaHp-W4bodO4WsvOct-1" value="&lt;div&gt;CSGO&lt;/div&gt;" style="rounded=1;whiteSpace=wrap;html=1;" vertex="1" parent="1">
          <mxGeometry x="575" y="120" width="120" height="60" as="geometry" />
        </mxCell>
        <mxCell id="UwjaHp-W4bodO4WsvOct-3" value="&lt;div&gt;SDK&lt;/div&gt;" style="rounded=1;whiteSpace=wrap;html=1;" vertex="1" parent="1">
          <mxGeometry x="195" y="280" width="120" height="60" as="geometry" />
        </mxCell>
        <mxCell id="UwjaHp-W4bodO4WsvOct-15" value="" style="edgeStyle=orthogonalEdgeStyle;rounded=0;orthogonalLoop=1;jettySize=auto;html=1;" edge="1" parent="1" source="UwjaHp-W4bodO4WsvOct-8" target="UwjaHp-W4bodO4WsvOct-14">
          <mxGeometry relative="1" as="geometry" />
        </mxCell>
        <mxCell id="UwjaHp-W4bodO4WsvOct-8" value="&lt;div&gt;csboost&lt;/div&gt;" style="rounded=1;whiteSpace=wrap;html=1;" vertex="1" parent="1">
          <mxGeometry x="195" y="120" width="120" height="60" as="geometry" />
        </mxCell>
        <mxCell id="UwjaHp-W4bodO4WsvOct-10" value="" style="endArrow=classic;html=1;rounded=0;entryX=0.325;entryY=-0.033;entryDx=0;entryDy=0;entryPerimeter=0;exitX=0.325;exitY=1.033;exitDx=0;exitDy=0;exitPerimeter=0;" edge="1" parent="1" source="UwjaHp-W4bodO4WsvOct-8" target="UwjaHp-W4bodO4WsvOct-3">
          <mxGeometry relative="1" as="geometry">
            <mxPoint x="225" y="190" as="sourcePoint" />
            <mxPoint x="275" y="510" as="targetPoint" />
          </mxGeometry>
        </mxCell>
        <mxCell id="UwjaHp-W4bodO4WsvOct-11" value="Request" style="edgeLabel;resizable=0;html=1;align=center;verticalAlign=middle;" connectable="0" vertex="1" parent="UwjaHp-W4bodO4WsvOct-10">
          <mxGeometry relative="1" as="geometry" />
        </mxCell>
        <mxCell id="UwjaHp-W4bodO4WsvOct-12" value="" style="endArrow=classic;html=1;rounded=0;entryX=0.825;entryY=1.05;entryDx=0;entryDy=0;entryPerimeter=0;exitX=0.825;exitY=-0.067;exitDx=0;exitDy=0;exitPerimeter=0;" edge="1" parent="1" source="UwjaHp-W4bodO4WsvOct-3" target="UwjaHp-W4bodO4WsvOct-8">
          <mxGeometry relative="1" as="geometry">
            <mxPoint x="305" y="510" as="sourcePoint" />
            <mxPoint x="305" y="190" as="targetPoint" />
          </mxGeometry>
        </mxCell>
        <mxCell id="UwjaHp-W4bodO4WsvOct-13" value="Response" style="edgeLabel;resizable=0;html=1;align=center;verticalAlign=middle;" connectable="0" vertex="1" parent="UwjaHp-W4bodO4WsvOct-12">
          <mxGeometry relative="1" as="geometry" />
        </mxCell>
        <mxCell id="UwjaHp-W4bodO4WsvOct-20" value="" style="edgeStyle=orthogonalEdgeStyle;rounded=0;orthogonalLoop=1;jettySize=auto;html=1;" edge="1" parent="1" source="UwjaHp-W4bodO4WsvOct-14" target="UwjaHp-W4bodO4WsvOct-19">
          <mxGeometry relative="1" as="geometry" />
        </mxCell>
        <mxCell id="UwjaHp-W4bodO4WsvOct-25" value="" style="edgeStyle=orthogonalEdgeStyle;rounded=0;orthogonalLoop=1;jettySize=auto;html=1;" edge="1" parent="1" source="UwjaHp-W4bodO4WsvOct-14" target="UwjaHp-W4bodO4WsvOct-1">
          <mxGeometry relative="1" as="geometry" />
        </mxCell>
        <mxCell id="UwjaHp-W4bodO4WsvOct-14" value="&lt;div&gt;Game open&lt;/div&gt;" style="rhombus;whiteSpace=wrap;html=1;rounded=1;" vertex="1" parent="1">
          <mxGeometry x="415" y="110" width="80" height="80" as="geometry" />
        </mxCell>
        <mxCell id="UwjaHp-W4bodO4WsvOct-19" value="Wait" style="ellipse;whiteSpace=wrap;html=1;rounded=1;" vertex="1" parent="1">
          <mxGeometry x="415" y="260" width="80" height="80" as="geometry" />
        </mxCell>
        <mxCell id="UwjaHp-W4bodO4WsvOct-24" value="" style="edgeStyle=orthogonalEdgeStyle;rounded=0;orthogonalLoop=1;jettySize=auto;html=1;" edge="1" parent="1" source="UwjaHp-W4bodO4WsvOct-21" target="UwjaHp-W4bodO4WsvOct-8">
          <mxGeometry relative="1" as="geometry" />
        </mxCell>
        <mxCell id="UwjaHp-W4bodO4WsvOct-21" value="&lt;div&gt;Start&lt;/div&gt;&lt;div&gt;&lt;br&gt;&lt;/div&gt;" style="shape=umlActor;verticalLabelPosition=bottom;verticalAlign=top;html=1;outlineConnect=0;" vertex="1" parent="1">
          <mxGeometry x="135" y="120" width="30" height="60" as="geometry" />
        </mxCell>
        <mxCell id="UwjaHp-W4bodO4WsvOct-36" value="Features" style="swimlane;fontStyle=0;childLayout=stackLayout;horizontal=1;startSize=26;horizontalStack=0;resizeParent=1;resizeParentMax=0;resizeLast=0;collapsible=1;marginBottom=0;align=center;fontSize=14;" vertex="1" parent="1">
          <mxGeometry x="555" y="260" width="160" height="86" as="geometry" />
        </mxCell>
        <mxCell id="UwjaHp-W4bodO4WsvOct-37" value="Bhop&lt;span style=&quot;white-space: pre;&quot;&gt;	&lt;/span&gt;" style="text;strokeColor=none;fillColor=none;spacingLeft=4;spacingRight=4;overflow=hidden;rotatable=0;points=[[0,0.5],[1,0.5]];portConstraint=eastwest;fontSize=12;whiteSpace=wrap;html=1;" vertex="1" parent="UwjaHp-W4bodO4WsvOct-36">
          <mxGeometry y="26" width="160" height="30" as="geometry" />
        </mxCell>
        <mxCell id="UwjaHp-W4bodO4WsvOct-39" value="Trigger" style="text;strokeColor=none;fillColor=none;spacingLeft=4;spacingRight=4;overflow=hidden;rotatable=0;points=[[0,0.5],[1,0.5]];portConstraint=eastwest;fontSize=12;whiteSpace=wrap;html=1;" vertex="1" parent="UwjaHp-W4bodO4WsvOct-36">
          <mxGeometry y="56" width="160" height="30" as="geometry" />
        </mxCell>
        <mxCell id="UwjaHp-W4bodO4WsvOct-58" value="&lt;b&gt;&lt;font style=&quot;font-size: 14px;&quot;&gt;Flow start boost&lt;/font&gt;&lt;/b&gt;" style="text;html=1;strokeColor=none;fillColor=none;align=center;verticalAlign=middle;whiteSpace=wrap;rounded=0;" vertex="1" parent="1">
          <mxGeometry x="353" y="70" width="145" height="30" as="geometry" />
        </mxCell>
      </root>
    </mxGraphModel>
  </diagram>
</mxfile>
